<svg xmlns="http://www.w3.org/2000/svg" viewBox="0 0 128 160" role="img" aria-label="Globe Trotter map pin"><path d="M64 155C57 144 16 100 16 64a48 48 0 1 1 96 0c0 36-41 80-48 91Z" fill="#1676D2" stroke="#17212B" stroke-width="6" stroke-linejoin="round"/><g fill="none" stroke="#FFFFFF" stroke-width="5.5" stroke-linecap="round" stroke-linejoin="round"><circle cx="64" cy="61" r="27"/><path d="M37 61h54M64 34c10 9 15 18 15 27S74 79 64 88M64 34c-10 9-15 18-15 27s5 18 15 27M43 45c6 4 13 6 21 6s15-2 21-6M43 77c6-4 13-6 21-6s15 2 21 6"/></g></svg>
